<?xml version="1.0" encoding="UTF-8"?>
<svg width="450px" height="25px" viewBox="0 0 450 25" version="1.1" xmlns="http://www.w3.org/2000/svg" xmlns:xlink="http://www.w3.org/1999/xlink">
    <!-- Generator: Sketch 52.6 (67491) - http://www.bohemiancoding.com/sketch -->
    <title>block-sm</title>
    <desc>Created with Sketch.</desc>
    <g id="block-sm" stroke="none" stroke-width="1" fill="none" fill-rule="evenodd">
        <rect id="Rectangle" fill="#E03333" x="100" y="0" width="25" height="25"></rect>
        <rect id="Rectangle" fill="#E03333" x="425" y="0" width="25" height="25"></rect>
        <rect id="Rectangle" fill="#E03333" x="300" y="0" width="25" height="25"></rect>
        <rect id="Rectangle" fill="#E5703D" x="0" y="0" width="25" height="25"></rect>
        <rect id="Rectangle" fill="#E5703D" x="250" y="0" width="25" height="25"></rect>
        <rect id="Rectangle" fill="#E5703D" x="275" y="0" width="25" height="25"></rect>
        <rect id="Rectangle" fill="#FFFFFF" x="375" y="0" width="25" height="25"></rect>
        <rect id="Rectangle" fill="#2ABFD3" x="50" y="0" width="25" height="25"></rect>
        <rect id="Rectangle" fill="#2ABFD3" x="400" y="0" width="25" height="25"></rect>
        <rect id="Rectangle" fill="#2ABFD3" x="125" y="0" width="25" height="25"></rect>
        <rect id="Rectangle" fill="#D8C75B" x="25" y="0" width="25" height="25"></rect>
        <rect id="Rectangle" fill="#D8C75B" x="350" y="0" width="25" height="25"></rect>
        <rect id="Rectangle" fill="#D8C75B" x="225" y="0" width="25" height="25"></rect>
        <rect id="Rectangle" fill="#3F5BEA" x="200" y="0" width="25" height="25"></rect>
        <rect id="Rectangle" fill="#3F5BEA" x="75" y="0" width="25" height="25"></rect>
        <rect id="Rectangle" fill="#3F5BEA" x="325" y="0" width="25" height="25"></rect>
        <rect id="Rectangle" fill="#000000" x="150" y="0" width="25" height="25"></rect>
        <rect id="Rectangle" fill="#3F5BEA" x="175" y="0" width="25" height="25"></rect>
    </g>
</svg>